<?xml version="1.0" encoding="iso-8859-1"?>
<svg width="560" height="80" version="1.1" xmlns="http://www.w3.org/2000/svg" xmlns:xlink="http://www.w3.org/1999/xlink">
  <defs>
    <pattern
      id="content"
      x="0"
      width="209"
      height="75"
      patternUnits="userSpaceOnUse"
    >
      <path
        d="M3.06 58V52.42C5.62 50.3 8.1 48.2 10.5 46.12C12.94 44.04 15.1 41.98 16.98 39.94C18.9 37.9 20.42 35.92 21.54 34C22.7 32.04 23.28 30.14 23.28 28.3C23.28 26.58 22.8 25.06 21.84 23.74C20.92 22.42 19.38 21.76 17.22 21.76C15.02 21.76 13.36 22.48 12.24 23.92C11.12 25.36 10.56 27.1 10.56 29.14H3.12C3.2 26.06 3.88 23.5 5.16 21.46C6.44 19.38 8.14 17.84 10.26 16.84C12.38 15.8 14.76 15.28 17.4 15.28C21.68 15.28 25 16.46 27.36 18.82C29.76 21.14 30.96 24.16 30.96 27.88C30.96 30.2 30.42 32.46 29.34 34.66C28.3 36.86 26.92 38.98 25.2 41.02C23.48 43.06 21.62 44.98 19.62 46.78C17.62 48.54 15.68 50.18 13.8 51.7H31.98V58H3.06ZM55.2844 58.72C51.4044 58.72 48.0844 57.82 45.3244 56.02C42.5644 54.18 40.4244 51.64 38.9044 48.4C37.4244 45.12 36.6844 41.32 36.6844 37C36.6844 32.72 37.4244 28.94 38.9044 25.66C40.4244 22.38 42.5644 19.84 45.3244 18.04C48.0844 16.2 51.4044 15.28 55.2844 15.28C59.1644 15.28 62.4844 16.2 65.2444 18.04C68.0044 19.84 70.1244 22.38 71.6044 25.66C73.1244 28.94 73.8844 32.72 73.8844 37C73.8844 41.32 73.1244 45.12 71.6044 48.4C70.1244 51.64 68.0044 54.18 65.2444 56.02C62.4844 57.82 59.1644 58.72 55.2844 58.72ZM55.2844 51.82C58.4444 51.82 61.0244 50.5 63.0244 47.86C65.0244 45.22 66.0244 41.6 66.0244 37C66.0244 32.4 65.0244 28.78 63.0244 26.14C61.0244 23.5 58.4444 22.18 55.2844 22.18C52.0844 22.18 49.4844 23.5 47.4844 26.14C45.5244 28.78 44.5444 32.4 44.5444 37C44.5444 41.6 45.5244 45.22 47.4844 47.86C49.4844 50.5 52.0844 51.82 55.2844 51.82ZM79.3491 58V52.42C81.9091 50.3 84.3891 48.2 86.7891 46.12C89.2291 44.04 91.3891 41.98 93.2691 39.94C95.1891 37.9 96.7091 35.92 97.8291 34C98.9891 32.04 99.5691 30.14 99.5691 28.3C99.5691 26.58 99.0891 25.06 98.1291 23.74C97.2091 22.42 95.6691 21.76 93.5091 21.76C91.3091 21.76 89.6491 22.48 88.5291 23.92C87.4091 25.36 86.8491 27.1 86.8491 29.14H79.4091C79.4891 26.06 80.1691 23.5 81.4491 21.46C82.7291 19.38 84.4291 17.84 86.5491 16.84C88.6691 15.8 91.0491 15.28 93.6891 15.28C97.9691 15.28 101.289 16.46 103.649 18.82C106.049 21.14 107.249 24.16 107.249 27.88C107.249 30.2 106.709 32.46 105.629 34.66C104.589 36.86 103.209 38.98 101.489 41.02C99.7691 43.06 97.9091 44.98 95.9091 46.78C93.9091 48.54 91.9691 50.18 90.0891 51.7H108.269V58H79.3491ZM113.626 58V52.42C116.186 50.3 118.666 48.2 121.066 46.12C123.506 44.04 125.666 41.98 127.546 39.94C129.466 37.9 130.986 35.92 132.106 34C133.266 32.04 133.846 30.14 133.846 28.3C133.846 26.58 133.366 25.06 132.406 23.74C131.486 22.42 129.946 21.76 127.786 21.76C125.586 21.76 123.926 22.48 122.806 23.92C121.686 25.36 121.126 27.1 121.126 29.14H113.686C113.766 26.06 114.446 23.5 115.726 21.46C117.006 19.38 118.706 17.84 120.826 16.84C122.946 15.8 125.326 15.28 127.966 15.28C132.246 15.28 135.566 16.46 137.926 18.82C140.326 21.14 141.526 24.16 141.526 27.88C141.526 30.2 140.986 32.46 139.906 34.66C138.866 36.86 137.486 38.98 135.766 41.02C134.046 43.06 132.186 44.98 130.186 46.78C128.186 48.54 126.246 50.18 124.366 51.7H142.546V58H113.626Z"
        fill="black"
      />
      <path
        d="M175.08 30.58V23.7H170.84V37.54L175.08 30.58ZM157 37.54H170.84L163.88 33.3H157V37.54ZM158.12 44.34L161.08 47.3L170.84 37.54L162.92 39.46L158.12 44.34ZM161.08 27.78L170.84 37.54L168.92 29.62L164.12 24.74L161.08 27.78ZM166.6 51.3H170.84V37.54L166.6 44.5V51.3ZM170.84 37.54L172.76 45.46L177.64 50.34L180.6 47.3L170.84 37.54ZM170.84 37.54L177.8 41.78H184.76L184.68 37.54H170.84ZM170.84 37.54L178.76 35.62L183.64 30.74L180.6 27.78L170.84 37.54Z"
        fill="black"
      />
    </pattern>

    <clipPath id="clip">
      <use href="#rect" />
    </clipPath>
  </defs>
  <rect
    id="rect"
    x="0"
    y="0"
    width="100%"
    height="100%"
    fill="#FFCC12"
    rx="40"
    ry="40"
  />
  <g clip-path="url(#clip)">
    <g>
      <animateTransform
        attributeName="transform"
        attributeType="XML"
        type="translate"
        from="0 0"
        to="-209 0"
        dur="1s"
        repeatCount="indefinite"
      />
      <rect
        x="0"
        y="0"
        width="200%"
        height="100%"
        fill="url(#content)"
        rx="40"
        ry="40"
      />
    </g>
  </g>
</svg>
